<?xml version="1.0" encoding="utf-8"?>
<!-- Generator: Adobe Illustrator 19.0.0, SVG Export Plug-In . SVG Version: 6.00 Build 0)  -->
<svg version="1.1" id="Layer_1" xmlns="http://www.w3.org/2000/svg" xmlns:xlink="http://www.w3.org/1999/xlink" x="0px" y="0px"
	 viewBox="212.1 326.8 186.8 139.4" style="enable-background:new 212.1 326.8 186.8 139.4;" xml:space="preserve">
<style type="text/css">
	.st0{fill:#FFFFFF;stroke:#FFFFFF;stroke-miterlimit:10;}
</style>
<g id="XMLID_2_">
	<g id="XMLID_15_">
		<g id="XMLID_16_">
			
				<rect id="XMLID_19_" x="361" y="356.2" transform="matrix(0.7167 0.6974 -0.6974 0.7167 375.0931 -148.1942)" class="st0" width="17.8" height="62.8"/>
			
				<rect id="XMLID_18_" x="345" y="340.5" transform="matrix(0.7167 0.6974 -0.6974 0.7167 359.635 -141.4092)" class="st0" width="17.8" height="62.8"/>
			
				<rect id="XMLID_17_" x="328.8" y="324.8" transform="matrix(0.7167 0.6974 -0.6974 0.7167 344.1092 -134.5968)" class="st0" width="17.8" height="62.8"/>
		</g>
	</g>
	<g id="XMLID_3_">
		<g id="XMLID_8_">
			
				<rect id="XMLID_14_" x="232.2" y="326.6" transform="matrix(-0.7167 -0.6974 0.6974 -0.7167 164.2184 782.6846)" class="st0" width="17.8" height="62.8"/>
			
				<rect id="XMLID_13_" x="248.3" y="342.3" transform="matrix(-0.7167 -0.6974 0.6974 -0.7167 180.9273 820.8331)" class="st0" width="17.8" height="62.8"/>
			
				<rect id="XMLID_11_" x="264.5" y="358" transform="matrix(-0.7167 -0.6974 0.6974 -0.7167 197.7049 859.1478)" class="st0" width="17.8" height="62.8"/>
		</g>
		<g id="XMLID_4_">
			
				<rect id="XMLID_7_" x="281.4" y="405.8" transform="matrix(-0.6974 0.7167 -0.7167 -0.6974 806.073 534.0423)" class="st0" width="17.8" height="62.8"/>
			
				<rect id="XMLID_6_" x="297.1" y="389.7" transform="matrix(-0.6974 0.7167 -0.7167 -0.6974 821.2007 495.4307)" class="st0" width="17.8" height="62.8"/>
			
				<rect id="XMLID_5_" x="312.8" y="373.6" transform="matrix(-0.6974 0.7167 -0.7167 -0.6974 836.3265 456.8116)" class="st0" width="17.8" height="62.8"/>
		</g>
	</g>
</g>
</svg>
